/* XPM */
static char *b87df4446ace46a3bb057481d6b2104ewPw73bIaouIYQ0hJ[] = {
/* columns rows colors chars-per-pixel */
"32 32 155 2 ",
"   c None",
".  c #064C29",
"X  c #0B512B",
"o  c #6B2A2B",
"O  c #413527",
"+  c #69242A",
"@  c #6F2D2B",
"#  c #1F3E25",
"$  c #6E262A",
"%  c #7B3932",
"&  c #064B27",
"*  c #044825",
"=  c #084F29",
"-  c None",
";  c #732E2C",
":  c #064226",
">  c #6D2C2C",
",  c #064826",
"<  c #B05F3B",
"1  c #722D28",
"2  c #6E2B2B",
"3  c #084F29",
"4  c #68282A",
"5  c #65262A",
"6  c #09522F",
"7  c #67262A",
"8  c #064727",
"9  c #18CB3B",
"0  c #0E6036",
"q  c #108932",
"w  c #679F6C",
"e  c #119634",
"r  c #0E6531",
"t  c #0B5B30",
"y  c #084E29",
"u  c #185C34",
"i  c #6D2B2B",
"p  c #6D2C2C",
"a  c #609967",
"s  c #6E2B2B",
"d  c #084C27",
"f  c #1CEE41",
"g  c #773F2F",
"h  c #174428",
"j  c #074A28",
"k  c #024825",
"l  c #0A502A",
"z  c #0A5F2B",
"x  c #0A5E2B",
"c  c #0A5D2A",
"v  c #73302C",
"b  c #76302A",
"n  c #953926",
"m  c #084E29",
"M  c #09522B",
"N  c #963B27",
"B  c #26894D",
"V  c #7B372F",
"C  c #A65536",
"Z  c #68A86F",
"A  c #108C32",
"S  c #0F8631",
"D  c #28693F",
"F  c #034925",
"G  c #A44727",
"H  c #5A372C",
"J  c #064D28",
"K  c #9E4E32",
"L  c #0B722D",
"P  c #034E26",
"I  c #2C3B28",
"U  c #129B34",
"Y  c #96422A",
"T  c #0C5930",
"R  c #5B9162",
"E  c #0C672F",
"W  c #0F8531",
"Q  c #0A642B",
"!  c #3E7A4F",
"~  c #19D33D",
"^  c #004123",
"/  c #09562A",
"(  c #0D742E",
")  c #E76A22",
"_  c #E66A23",
"`  c #D55C21",
"'  c #DF6824",
"]  c #E36824",
"[  c #DD6222",
"{  c #C35C28",
"}  c #CD5522",
"|  c #E86F27",
" . c #A74C26",
".. c #C55124",
"X. c #0F5B4B",
"o. c #0B5630",
"O. c #187C3F",
"+. c #14A637",
"@. c #17AF3E",
"#. c #9E5035",
"$. c #833E2F",
"%. c #DD6322",
"&. c #9C4728",
"*. c #80392B",
"=. c #B85C2C",
"-. c #CF6228",
";. c #CD5E23",
":. c #D97236",
">. c #964326",
",. c #BA572C",
"<. c #285029",
"1. c #1A5230",
"2. c #0D5937",
"3. c #0F9332",
"4. c #0B612D",
"5. c #189F3E",
"6. c #2F844B",
"7. c #15BE39",
"8. c #D86326",
"9. c #D26930",
"0. c #E9752D",
"q. c #E07938",
"w. c #974D35",
"e. c #A24824",
"r. c #D77D44",
"t. c #156B3A",
"y. c #C46524",
"u. c #1C7D4A",
"i. c #D16023",
"p. c #6DB778",
"a. c #19CE3E",
"s. c #18903F",
"d. c #BA4D28",
"f. c #E2722E",
"g. c #EA7E37",
"h. c #BA4A25",
"j. c #50915D",
"k. c #8E3D24",
"l. c #2B9944",
"z. c #32A649",
"x. c #629B68",
"c. c #287946",
"v. c #54B260",
"b. c #AD6425",
"n. c #AE6325",
"m. c #14664E",
"M. c #3B904E",
"N. c #689D6C",
"B. c #58D165",
"V. c #1F8449",
"C. c #108832",
"Z. c #108732",
"A. c #0D742F",
"S. c #4DB463",
"D. c #128236",
/* pixels */
"                                                                ",
"                                            * u u *             ",
"                                          # X a a .             ",
"                                        # X w x.D 8             ",
"                                      # X w p.c.F               ",
"                                    # X w p.6.t ,               ",
"                                  # X e S.6.t ,                 ",
"                                * c e a.s.t ,       = & & & . * ",
"                            : h 8 / 7.@.4.j ,   k . L l.j.t.6 & ",
"                          : c q Q q @.r 0 D.( ^ ! M.3.z.Z B M m ",
"                        d . 0 5.O.a.s.t.5.@.3.6.N.v.e j X #     ",
"                        P 6 m.o.O.+.C.O.5.3.7.B.R J . O         ",
"                      + I T O.0 o.o.+.Z.A.+.7.q l O O           ",
"                5 7 7 ; g <.o.u.X.2.r +.~ W 3 l O               ",
"              + V g % K q.b.1.X.2.u.V.r z = 8 #                 ",
"            + @ C r.:.8.| y.<.1.X.2.4.4.x x z d y :             ",
"          $ @ N h.....} ] ' y.n.1.X.@.9 9 9 S 3 3 .             ",
"        $ @ < :.[ [ %.` } ] ] =.<.6 E U f f A = = y             ",
"      $ @ n d.8._ _ _ ] ` ..{ w.H h k :                         ",
"    $ @ < 9.` } ` _ 0.g.' ,.w.% s $                             ",
"  $ @ < q.| _ %.[ _ | f.{ #.- 1 4                               ",
"  + i ,.' _ _ _ _ _ ' -.=.- % ; +                               ",
"+ 2 G ..} %._ _ _ ' -.=.#.% 2 #                                 ",
"4 v 9.| ` [ ) _ ' {  .#.% 2 #                                   ",
"5 v r.0._ ) ;.;.{ &.$.% o O                                     ",
"; Y :.-.i.;. .e.&.$.% o O                                       ",
"b i.;.e. .>.&.>.*.% o O                                         ",
"b ,.>. .k.$.*.1 i o O                                           ",
"> - - *.1 > > ; $ $                                             ",
"7 > p p s 5 4 +                                                 ",
"                                                                ",
"                                                                "
};
