/* XPM */
static char *bf30e11edff744e8f6867acd8baf2f2fl3DwpFFVkp2BVNwN[] = {
/* columns rows colors chars-per-pixel */
"32 32 227 2 ",
"   c None",
".  c #050000",
"X  c #060000",
"o  c #070004",
"O  c #0D0000",
"+  c #0E0000",
"@  c #0F0000",
"#  c #0F0005",
"$  c #080009",
"%  c #0C020A",
"&  c #110000",
"*  c #120000",
"=  c #140000",
"-  c #160000",
";  c #150002",
":  c #110005",
">  c #150005",
",  c #190000",
"<  c #1B0000",
"1  c #1C0000",
"2  c #1D0000",
"3  c #1F0000",
"4  c #1B0004",
"5  c #14000B",
"6  c #16000B",
"7  c #1B000B",
"8  c #1D0008",
"9  c #1A000F",
"0  c #200000",
"q  c #210000",
"w  c #220000",
"e  c #230000",
"r  c #220002",
"t  c #230002",
"y  c #240000",
"u  c #250000",
"i  c #260000",
"p  c #270000",
"a  c #270002",
"s  c #260004",
"d  c #270005",
"f  c #240006",
"g  c #290000",
"h  c #2A0000",
"j  c #2B0000",
"k  c #290002",
"l  c #2C0000",
"z  c #2D0000",
"x  c #280004",
"c  c #290005",
"v  c #27000C",
"b  c #27000E",
"n  c #300000",
"m  c #320000",
"M  c #350000",
"N  c #350005",
"B  c #3B2C25",
"V  c #3E2C28",
"C  c #3D282D",
"Z  c #3D2F2E",
"A  c #5D1C00",
"S  c #592402",
"D  c #4F2B13",
"F  c #4E2C10",
"G  c #4C271F",
"H  c #502310",
"J  c #5E2A12",
"K  c #502618",
"L  c #552718",
"P  c #4C2A2B",
"I  c #4F2B2B",
"U  c #4A2E2A",
"Y  c #463324",
"T  c #453424",
"R  c #4C3025",
"E  c #4A312A",
"W  c #563128",
"Q  c #552C30",
"!  c #433938",
"~  c #5D333D",
"^  c #652938",
"/  c #6A2D3B",
"(  c #78303F",
")  c #5E3346",
"_  c #5F3E47",
"`  c #543B4F",
"'  c #722A40",
"]  c #6F3140",
"[  c #6E3745",
"{  c #62314C",
"}  c #723149",
"|  c #715844",
" . c #725E46",
".. c #7F604C",
"X. c #984E0F",
"o. c #9F5816",
"O. c #96531E",
"+. c #A1521A",
"@. c #9C5221",
"#. c #9F5623",
"$. c #8B5636",
"%. c #915533",
"&. c #915A31",
"*. c #C87E3F",
"=. c #D2753A",
"-. c #D3783F",
";. c #8A5C42",
":. c #8E5448",
">. c #885951",
",. c #886144",
"<. c #8A6346",
"1. c #C07D48",
"2. c #C17F4B",
"3. c #CB7F4B",
"4. c #D77840",
"5. c #D37F41",
"6. c #DB7C42",
"7. c #DC7D45",
"8. c #D37B49",
"9. c #D57E48",
"0. c #D47C4A",
"q. c #D57D4B",
"w. c #D57D4D",
"e. c #DC7B48",
"r. c #D97F4A",
"t. c #DC7E48",
"y. c #CD7D58",
"u. c #D67A53",
"i. c #D47D50",
"p. c #D07F54",
"a. c #DB7D57",
"s. c #CD7F68",
"d. c #CB803F",
"f. c #CF823C",
"g. c #D1893D",
"h. c #B88254",
"j. c #BC8254",
"k. c #BE8957",
"l. c #BF8B5B",
"z. c #AF8160",
"x. c #BB8561",
"c. c #BB8762",
"v. c #BC8B62",
"b. c #B98C63",
"n. c #B4856B",
"m. c #B4886D",
"M. c #BD8868",
"N. c #BA8F6F",
"B. c #BE8772",
"V. c #B78D75",
"C. c #CE8040",
"Z. c #CD8742",
"A. c #C98147",
"S. c #CB8047",
"D. c #CD8145",
"F. c #CD8646",
"G. c #CD8248",
"H. c #CE8349",
"J. c #C8874D",
"K. c #CA854E",
"L. c #C9864F",
"P. c #D08043",
"I. c #D78442",
"U. c #D48044",
"Y. c #D48946",
"T. c #D78D46",
"R. c #D3824B",
"E. c #D48248",
"W. c #D4814B",
"Q. c #D5834B",
"!. c #D28648",
"~. c #D58548",
"^. c #D1814E",
"/. c #D3804E",
"(. c #D2854D",
"). c #D2864C",
"_. c #D4854C",
"`. c #D8834D",
"'. c #DD834E",
"]. c #D9844D",
"[. c #D5894D",
"{. c #DA8B49",
"}. c #C48053",
"|. c #C78450",
" X c #CB8255",
".X c #CB8554",
"XX c #CE8457",
"oX c #CF8757",
"OX c #CC8952",
"+X c #C98E56",
"@X c #C2835A",
"#X c #C58059",
"$X c #C68158",
"%X c #C08658",
"&X c #CC815A",
"*X c #CA875A",
"=X c #CA875C",
"-X c #C18B5D",
";X c #C6895C",
":X c #CC885B",
">X c #CD8A5D",
",X c #D68254",
"<X c #D68454",
"1X c #D78A52",
"2X c #D28B55",
"3X c #D28B57",
"4X c #D58955",
"5X c #D48358",
"6X c #D3855E",
"7X c #D08E5C",
"8X c #DC8A58",
"9X c #E18447",
"0X c #E08451",
"qX c #E88A54",
"wX c #C58760",
"eX c #C78563",
"rX c #C08B61",
"tX c #C58B65",
"yX c #C0826B",
"uX c #CB836B",
"iX c #CF816A",
"pX c #C08D6E",
"aX c #C9886A",
"sX c #D28664",
"dX c #C58472",
"fX c #C78B73",
"gX c #CC9871",
/* pixels */
"                                                                ",
"                                                                ",
"                                                                ",
"                                                                ",
"                                                                ",
"                                                                ",
"                                                                ",
"                                                                ",
"                                                                ",
"                        c r 2 j                                 ",
"                      / r I U r                                 ",
"          i j j z j z z i L ..2                                 ",
"        2 , >.:.dXfXz.M.iXs.$.j i ]                             ",
"        2 | ;.%.#X>Xj n u.a.*Xc.r i ^                           ",
"        i ,.&.|.).C.Z.Y.4.qXA.j.B.i i                           ",
"        i ,.h.OXG.!.F.d.9X6.P.3XwXyXz i i j z n N               ",
"        ,  .b.%X@XwXrX;Xw.e.t.'.9.8X3.L.OX.Xy.uXi i             ",
"            z M n z i j sX,X9.-.7.=.I.f.g.T.U. Xm.r             ",
"                    ( n j tXL.[.r.0XQ.D.o.X._.oXpXj             ",
"                      ' r N.+X*.`.8.^.4XA.1X)..Xc.z             ",
"                        r V.1.{.Q.R.#.@.<X^.+.O.v.i             ",
"                        r r oX5.~.A.7X}.p.i.Q.3Xl.i j           ",
"                        [ i 6X].G.L.k.-X#X5X9.Q.1.gX2           ",
"                          i A :X-Xi r i j aX&XoX=XS , 2         ",
"                        8 * D F * + , ~ , 2 i n.J H E ,         ",
"                        > Z Y T . o 5   ` + * , K W V -         ",
"                        7 ! B + + # 5   $ % + - G R . +         ",
"                        4 C * - ) v v { 9 : _ , Q I +           ",
"                        i r c }               d d r d           ",
"                                                                ",
"                                                                ",
"                                                                "
};
