/* XPM */
static char *_a332ca346aa4ae8f676fbc6edf72c52S8KcFB2jz0CJFJsV[] = {
/* columns rows colors chars-per-pixel */
"32 32 12 1 ",
"  c None",
". c #237D14",
"X c #C3412D",
"o c #B26247",
"O c #E66E46",
"+ c #64A51E",
"@ c #FF8B32",
"# c #FFAA32",
"$ c #BED72D",
"% c #DC9B78",
"& c #FFE65A",
"* c white",
/* pixels */
"                                ",
"                                ",
"                                ",
"                $      &&&&     ",
"               $.    &&***&&    ",
"              $..  &&&*&&&&##   ",
"             $+.  #&#&&#&##&##  ",
"            $+.. &&#&##&&#&###  ",
"           $++..&###&#&#&#&###  ",
"          $++..O&#&&#&&&#&###   ",
"          $++.O@##&#&#&######   ",
"         $++..O&&&##&&#&#&#@    ",
"        $++..O@###&&##&#&#@@    ",
"       $++...O&#&##&##&##@@     ",
"      $++...O##&#&&#&###@@      ",
"     $+++..O&#&##&##&##@@       ",
"    $+++...O###&&#&&##@@        ",
"   $+++...O&#&#&##&##@@         ",
"  $++++.+.O#&&##&###@@          ",
"  $+++..+O#&##&###@OX$$++..     ",
"  $++..++#&##&##@OX$$+....      ",
" ++++..+++&#&#OOX$$++...        ",
" +++..+++.##OX$$$++....         ",
" +++..++.++$$$++++...           ",
" ++.....++++++++....            ",
" ++.++++++++++....              ",
" ++.+++++........               ",
" %o.+++.........                ",
" %%o.+........                  ",
" oooo........                   ",
"  ooo.....                      ",
"                                "
};
