/* XPM */
static char *a791dcaff727432eeab9f8ae7d16c864PHdBwJzSSNLnHFJF[] = {
/* columns rows colors chars-per-pixel */
"32 32 5 1 ",
"  c #C0CBDC",
". c #8B9BB4",
"X c #5A6988",
"o c #ECF0F1",
"O c white",
/* pixels */
"        .  XXXX    XX...XXXX...X",
"o          XX      XX .      .  ",
"oX...XXXXXX..   XXXXX..   .  .  ",
"o  XX     X....XX..X         X  ",
"   XX .   XXXXX.XXXX .       X  ",
"oXXX.     X.XXXXXXX.     .XXXXXX",
"o .X....XXXXX     X..XXXXXXXX  .",
"o..X ...XX..X.    X  XXXX  XXXX.",
"oXXXXXXXXX.XX     X  X  XX...X.X",
"o..XXXX  XXX...XXXX..X  XX.     ",
"   X X.  ......X   XXXXXXXX     ",
"o  XXX......XXXX...XXXXXXXX..   ",
"   XXX... .      ...   . X  .   ",
"oXX  X. ...      ...     ..XX...",
"  X..X. .          .     ..XXXXX",
"oXXXXXX X          XXXX....X  XX",
"o  XXXXXX ..    .. X  X  XXX  X.",
"o  XXXXXX   .   .. X  XXXX.X..X ",
"o  .X....          XXXX.. XX..X.",
" ...X.  ..XXXXXX....XXXXXXXX.XXX",
"o    .  ..X  X.  .. X       .   ",
"o  . .  ..XXXX.  XXXX       X . ",
"o    X  XX.XXXXXXXX         .   ",
"o    XXXXXXXXX... . .   XXX..   ",
"o    XXXXX     .. .     X..XX . ",
"     .  .X  .  XXXXXXXXXX.   XXX",
"oXX...  .X     ..X.X .  XX   XX.",
"o.X....XXX     ..XXX ..XXXXXX   ",
"o.X. ..X.XXX...    X   .XX  X   ",
"oXXXXXXXXXXX...  . X   XXXXXXXXX",
"oXXXXXXXXXXX...    X   X      X.",
"o          XXXX    XXXXX      X "
};
