/* XPM */
static char *aaab5954da954d1da0a42cc23746a527s4bDfZ9npDPYP9y3[] = {
/* columns rows colors chars-per-pixel */
"32 32 252 2 ",
"   c None",
".  c #101215",
"X  c #121417",
"o  c #131518",
"O  c #141619",
"+  c #15171A",
"@  c #16181B",
"#  c #16191C",
"$  c #17191C",
"%  c #17191D",
"&  c #181B1F",
"*  c #191B1F",
"=  c #191C1F",
"-  c #191C20",
";  c #1A1D20",
":  c #1B1E22",
">  c #1C2024",
",  c #1F2327",
"<  c #21252A",
"1  c #26292C",
"2  c #292C2F",
"3  c #262C31",
"4  c #272D31",
"5  c #2A2D30",
"6  c #292F34",
"7  c #293035",
"8  c #2A3035",
"9  c #2B3136",
"0  c #2B3237",
"q  c #2C3238",
"w  c #2C3338",
"e  c #2D3339",
"r  c #2D3439",
"t  c #2E343A",
"y  c #2E353A",
"u  c #2F353A",
"i  c #2E353B",
"p  c #2F353B",
"a  c #2F363B",
"s  c #2F363C",
"d  c #30373D",
"f  c #35393D",
"g  c #363B3F",
"h  c #333B41",
"j  c #363D42",
"k  c #373E43",
"l  c #363F46",
"z  c #373F46",
"x  c #363F47",
"c  c #374046",
"v  c #364047",
"b  c #374047",
"n  c #384046",
"m  c #3A4046",
"M  c #394249",
"N  c #39424A",
"B  c #3A434A",
"V  c #3B454C",
"C  c #3C454C",
"Z  c #3D464D",
"A  c #3D464E",
"S  c #3D474E",
"D  c #3E474E",
"F  c #3F4950",
"G  c #40494F",
"H  c #404951",
"J  c #414A51",
"K  c #424B51",
"L  c #414A52",
"P  c #414B52",
"I  c #424C53",
"U  c #434C53",
"Y  c #424C54",
"T  c #434D55",
"R  c #434E55",
"E  c #444D54",
"W  c #454E55",
"Q  c #444E56",
"!  c #454F57",
"~  c #455057",
"^  c #465058",
"/  c #465159",
"(  c #475159",
")  c #47525A",
"_  c #48525B",
"`  c #48535B",
"'  c #4A545B",
"]  c #49545C",
"[  c #4A555D",
"{  c #4A555E",
"}  c #4A565E",
"|  c #4D565E",
" . c #4C575F",
".. c #505357",
"X. c #54585C",
"o. c #55595D",
"O. c #4C5760",
"+. c #4C5860",
"@. c #4D5861",
"#. c #4D5961",
"$. c #4E5A62",
"%. c #4E5A63",
"&. c #4F5B64",
"*. c #505B64",
"=. c #535D64",
"-. c #515D66",
";. c #535D66",
":. c #565E65",
">. c #545F67",
",. c #565F67",
"<. c #57636B",
"1. c #5D6368",
"2. c #58636C",
"3. c #58646C",
"4. c #59646C",
"5. c #58646D",
"6. c #59646D",
"7. c #59656D",
"8. c #59656E",
"9. c #5A656E",
"0. c #5A666E",
"q. c #5A666F",
"w. c #5B666F",
"e. c #5B6770",
"r. c #5D6972",
"t. c #5F6B74",
"y. c #646A6F",
"u. c #606C75",
"i. c #616C75",
"p. c #626E77",
"a. c #656D74",
"s. c #656E74",
"d. c #666E74",
"f. c #666E75",
"g. c #666F75",
"h. c #646F78",
"j. c #687076",
"k. c #687077",
"l. c #687177",
"z. c #6C7277",
"x. c #647079",
"c. c #657079",
"v. c #65717A",
"b. c #66717A",
"n. c #66727B",
"m. c #67727B",
"M. c #67737C",
"N. c #6A7279",
"B. c #6A737A",
"V. c #6B737A",
"C. c #6D7378",
"Z. c #6C747A",
"A. c #6D757B",
"S. c #6A757E",
"D. c #6B767F",
"F. c #6E767C",
"G. c #6F767D",
"H. c #6F777D",
"J. c #71777D",
"K. c #72787D",
"L. c #75797E",
"P. c #6C7780",
"I. c #727A81",
"U. c #757D83",
"Y. c #768087",
"T. c #78838B",
"R. c #7D858B",
"E. c #868E95",
"W. c #848F96",
"Q. c #848F97",
"!. c #848F98",
"~. c #849098",
"^. c #859098",
"/. c #899198",
"(. c #89949C",
"). c #8D979F",
"_. c #8D989F",
"`. c #8E989F",
"'. c #8D98A0",
"]. c #919AA1",
"[. c #939BA1",
"{. c #919BA3",
"}. c #929BA2",
"|. c #929CA3",
" X c #939DA4",
".X c #949DA4",
"XX c #949EA5",
"oX c #959FA6",
"OX c #969FA7",
"+X c #98A0A5",
"@X c #98A0A6",
"#X c #98A1A8",
"$X c #99A3AA",
"%X c #9DA4AA",
"&X c #9CA5AC",
"*X c #9DA6AD",
"=X c #9EA6AC",
"-X c #9EA7AD",
";X c #9EA7AE",
":X c #9FA8AF",
">X c #A0A8AF",
",X c #A1A9AF",
"<X c #A0A9B0",
"1X c #A2AAB0",
"2X c #A3AAB1",
"3X c #A3ABB1",
"4X c #A5ABB0",
"5X c #A6ACB1",
"6X c #A4ACB2",
"7X c #A5ACB2",
"8X c #A5ADB3",
"9X c #A6AEB4",
"0X c #A7AEB4",
"qX c #A7AFB5",
"wX c #A8AFB5",
"eX c #A9AFB5",
"rX c #A8B0B5",
"tX c #A8B0B6",
"yX c #A9B0B6",
"uX c #A9B1B6",
"iX c #A9B1B7",
"pX c #AAB1B7",
"aX c #AAB2B8",
"sX c #ABB2B8",
"dX c #ABB3B8",
"fX c #ABB3B9",
"gX c #ACB3B9",
"hX c #ACB4B9",
"jX c #ADB4BA",
"kX c #AEB5BB",
"lX c #AEB6BB",
"zX c #AEB6BC",
"xX c #AFB6BC",
"cX c #B1B9BE",
"vX c #B2B8BE",
"bX c #B2B9BE",
"nX c #B2B9BF",
"mX c #B3BABF",
"MX c #B3BAC0",
"NX c #B4BBC0",
"BX c #B4BBC1",
"VX c #B5BCC1",
"CX c #B6BDC2",
"ZX c #B7BEC3",
"AX c #B8BEC4",
"SX c #B8BFC4",
"DX c #B9BFC5",
"FX c #B9C0C5",
"GX c #BAC0C5",
"HX c #BAC0C6",
"JX c #BAC1C6",
"KX c #BBC1C7",
/* pixels */
"C b l b b l b b b b l l l b b l b b b b l l b b b b l l l b b N ",
"G d.H.d.N.H.l.l.N.d.H.H.A.d.A.H.d.N.l.l.H.H.N.d.A.d.A.H.H.d.N.,.",
"W 6XKXsXnXKXxXkXnXsXKXKXAXyXCXKXsXnXkXxXKXKXBXyXCXyXCXKXKXsXMXR.",
"U [.6X6X6X6X6X6X6X6X6X6X6X6X6X6X6X6X6X6X6X6X6X6X6X6X6X6X6X6X6XI.",
"W @XqXyXsXqXqXyXqXsXsXyXqXyXqXyXsXqXyXwXqXsXsXyXqXyXqXyXsXsXyXI.",
"K %X>XsXnX3X6XwX>XnXnXkX=XkX=XgXnX3XqXqX3XnXnXkX=XkX=XkXnXnX6XN.",
"r ;.3.3.3.2.3.3.3.3.3.3.<.3.2.3.3.3.3.3.2.3.3.3.<.3.3.3.3.3.3.K ",
"9 ` U [ W C / ` R [ C C F O.K C [ W / / C R [ C C F O.K [ R C h ",
"6 r r s r e r r e r 9 9 e r e 9 r r r r 9 e r 9 9 e d r s r e 9 ",
"  6 F / / / b < & = = = = & = = = = = = = = = = - 6 R / / / h 3 ",
"  9 ` t.h.3.C , o O O O O O O O O O O O O O O o # 9 %.u.h.3.b 3 ",
"  9 ` c.P.r.C , O O O O O O O O O O O O O O O O # 9 %.c.P.3.l 3 ",
"  9 ` c.P.r.C , O O O O O O O O O O O O O O O O # 9 %.c.D.3.l 3 ",
"  9 ` c.P.r.C , O O O O O O O O O O O O O O O O # 9 %.c.D.3.l 3 ",
"  9 ` c.P.r.C , O O O O O O O O O O O O O O O O # 9 %.c.D.3.l 3 ",
"  9 ` c.P.r.C , O O O O O O O O O O O O O O O O # 9 %.c.D.3.l 3 ",
"  9 ` c.P.r.C , O O O O O O O O O O O O O O O O # 9 %.c.D.3.l 3 ",
"  9 ` c.P.r.C , O O O O O O O O O O O O O O O O # 9 %.c.D.3.l 3 ",
"  9 ` c.P.r.C , O O O O O O O O O O O O O O O O # 9 %.c.D.3.l 3 ",
"  9 ` c.P.r.C , O O O O O O O O O O O O O O O O # 9 %.c.D.3.l 3 ",
"  9 ` c.P.r.C , O O O O O @ # # # # # O O O O O # 9 %.c.D.3.l 3 ",
"  9 ` c.P.r.C , O O O O - K ,.' ;. .~ r o O O O # 9 %.c.D.3.l 3 ",
"  9 ` c.P.r.C , O O o - K u.D.c.D.M.c.,.r o O O # 9 %.c.D.3.l 3 ",
"  9 ` c.P.r.C , O X 1 J.T.`.[.[.[.[.[.W.Y.o.X O # 9 %.c.D.3.l 3 ",
"  9 ` c.P.r.C , X 5 K.[.(.|.XX X X XXX`.'./.o.O # 9 %.c.D.3.l 3 ",
"  9 ` c.P.r.C , . g |.^.^.^.!.^.^.W.W.^.^.).U.o # 9 %.c.D.3.l 3 ",
"  9 ` c.P.r.C , 2 z.XX:X=XXX=XXX=X3X3X$X$X=XW...# 9 %.c.D.3.l 3 ",
"  9 ` c.P.r.V g L.BXyXCXCXyXBXyXnXAXAXkXkXnXsX6X..r %.c.D.3.l 3 ",
"  9 ` c.P.r.N y.CX6X6X6X6X6X6X6X6X6X6X6X6X6X6XyX4Xk %.c.P.3.l 3 ",
"  9 ` u.c.e.N 1.sX6X6X6X6X6X6X6X6X6X6X6X6X6X6XqX@Xk %.u.c.3.l 3 ",
"  9 / ;.*.%.N C.AX6X6X6X6X6X6X6X6X6X6X6X6X6X6XyXwXm [ ;.&.%.m   ",
"    C  .W C b   AX6X6X6X6X6X6X6X6X6X6X6X6X6X6X6X6X  C %.R C     "
};
